<svg
  width="207"
  height="96"
  viewBox="0 0 207 96"
  fill="none"
  xmlns="http://www.w3.org/2000/svg">
  <mask
    id="path-1-outside-1_15_41"
    maskUnits="userSpaceOnUse"
    x="0"
    y="0"
    width="207"
    height="96"
    fill="black">
    <rect fill="white" width="207" height="96" />
    <path
      d="M45.7783 4.00003H101.778L58 76.8593H2.00002L45.7783 4.00003Z" />
    <path
      d="M116.778 4.00003H131.494L87.7154 76.8593H73L116.778 4.00003Z" />
    <path
      d="M116.778 4.00003H131.494L87.7154 76.8593H73L116.778 4.00003Z" />
    <path d="M2 77H88V92H2V77Z" />
    <path d="M89 77.2283L133 4V19L89 92.2283V77.2283Z" />
    <path d="M55.9542 32H111.954L85 76.8592H29L55.9542 32Z" />
    <path
      d="M91.9043 76.5731V85.3004L91.4321 86.1884V77.4611L91.9043 76.5731Z" />
    <path
      d="M92.769 83.674V77.1286L93.2412 76.2406V82.7861L92.769 83.674ZM93.0091 75.5862C92.9171 75.7592 92.8377 75.8417 92.771 75.8336C92.7057 75.823 92.673 75.7239 92.673 75.5364C92.673 75.3489 92.7057 75.127 92.771 74.8705C92.8377 74.6116 92.9171 74.3956 93.0091 74.2225C93.1011 74.0494 93.1798 73.9682 93.2452 73.9788C93.3118 73.9869 93.3452 74.0847 93.3452 74.2722C93.3452 74.4597 93.3118 74.6829 93.2452 74.9419C93.1798 75.1983 93.1011 75.4131 93.0091 75.5862Z" />
    <path
      d="M94.1699 81.0393V72.312L94.6421 71.424V74.6456L94.6821 74.5704C94.7168 74.3915 94.7648 74.1564 94.8261 73.8648C94.8888 73.568 94.9782 73.2408 95.0942 72.8834C95.2116 72.5206 95.3703 72.1511 95.5703 71.7748C95.8291 71.2882 96.0572 70.997 96.2545 70.9014C96.4519 70.8057 96.606 70.9066 96.7167 71.2041C96.8274 71.5016 96.8827 71.9941 96.8827 72.6816C96.8827 73.3748 96.8274 74.0797 96.7167 74.7964C96.606 75.5103 96.4526 76.1908 96.2565 76.838C96.0605 77.4823 95.8344 78.0452 95.5783 78.5268C95.381 78.898 95.2229 79.1257 95.1042 79.2097C94.9855 79.2909 94.8942 79.3022 94.8301 79.2437C94.7661 79.1823 94.7168 79.1245 94.6821 79.0704L94.6261 79.1757V80.1814L94.1699 81.0393ZM94.6341 76.8936C94.6341 77.388 94.6681 77.7601 94.7361 78.01C94.8041 78.2571 94.9035 78.3642 95.0342 78.3315C95.1649 78.2959 95.3249 78.1 95.5143 77.7438C95.7117 77.3726 95.8764 76.952 96.0085 76.4821C96.1418 76.0068 96.2419 75.5175 96.3086 75.0143C96.3766 74.5057 96.4106 74.0184 96.4106 73.5525C96.4106 73.0923 96.3772 72.7402 96.3106 72.4963C96.2452 72.2471 96.1458 72.1399 96.0125 72.1748C95.8804 72.2044 95.7144 72.4073 95.5143 72.7836C95.3223 73.1448 95.1609 73.552 95.0302 74.0052C94.8995 74.4556 94.8008 74.9281 94.7341 75.4229C94.6674 75.9147 94.6341 76.405 94.6341 76.8936Z" />
    <path
      d="M97.6049 74.579V68.0335L98.0611 67.1757V68.1643L98.0931 68.1041C98.1491 67.6749 98.2505 67.2215 98.3972 66.7438C98.5439 66.2662 98.7093 65.8543 98.8933 65.5082C98.928 65.4429 98.9713 65.3628 99.0234 65.2678C99.0754 65.1729 99.1147 65.1031 99.1414 65.0586V66.0814C99.1254 66.1029 99.0887 66.1591 99.0314 66.25C98.9753 66.3354 98.916 66.4371 98.8533 66.555C98.7039 66.8359 98.5706 67.1535 98.4532 67.5078C98.3372 67.8567 98.2451 68.2116 98.1771 68.5725C98.1104 68.928 98.0771 69.2535 98.0771 69.549V73.691L97.6049 74.579Z" />
    <path
      d="M100.605 69.0895C100.411 69.4557 100.234 69.7099 100.075 69.8522C99.9165 69.9916 99.7904 69.9999 99.6971 69.8772C99.6037 69.7517 99.557 69.4758 99.557 69.0497C99.557 68.6747 99.5917 68.3055 99.661 67.9421C99.7304 67.5759 99.8231 67.2169 99.9391 66.8651C100.055 66.5134 100.183 66.1732 100.323 65.8444C100.465 65.5104 100.607 65.1892 100.749 64.8811C100.936 64.4788 101.087 64.1557 101.204 63.9119C101.321 63.6628 101.406 63.4554 101.46 63.2897C101.514 63.1215 101.542 62.9564 101.542 62.7945V62.7604C101.542 62.34 101.488 62.1148 101.38 62.0851C101.273 62.0528 101.111 62.2411 100.893 62.6499C100.668 63.0739 100.491 63.5113 100.363 63.9624C100.235 64.4134 100.145 64.8071 100.093 65.1436L99.645 65.6455C99.7251 65.0973 99.8318 64.5869 99.9651 64.1145C100.1 63.6367 100.247 63.2046 100.405 62.818C100.565 62.4261 100.723 62.0847 100.877 61.7937C100.976 61.6081 101.089 61.4204 101.218 61.2308C101.347 61.0357 101.472 60.9021 101.592 60.8297C101.713 60.7549 101.814 60.797 101.894 60.9562C101.974 61.1153 102.014 61.4548 102.014 61.9747V66.2872L101.542 67.1752V66.2888L101.518 66.334C101.486 66.5362 101.432 66.7885 101.358 67.091C101.283 67.3934 101.184 67.718 101.059 68.0649C100.935 68.4118 100.784 68.7534 100.605 69.0895ZM100.677 68.0506C100.864 67.6994 101.021 67.3253 101.149 66.9283C101.279 66.5287 101.376 66.1439 101.442 65.7738C101.508 65.4013 101.542 65.0786 101.542 64.8059V63.8854C101.522 63.9742 101.478 64.1038 101.41 64.2744C101.343 64.4396 101.266 64.6206 101.177 64.8174C101.091 65.0088 101.006 65.1937 100.923 65.3719C100.842 65.5448 100.776 65.686 100.725 65.7955C100.603 66.0604 100.488 66.3315 100.381 66.6089C100.276 66.8809 100.191 67.1537 100.125 67.4272C100.061 67.6953 100.029 67.9572 100.029 68.2129C100.029 68.5623 100.09 68.7124 100.211 68.6631C100.334 68.6085 100.489 68.4043 100.677 68.0506Z" />
    <path
      d="M102.875 64.6665V58.1211L103.332 57.2632V58.2518L103.364 58.1916C103.42 57.7624 103.521 57.309 103.668 56.8314C103.814 56.3537 103.98 55.9418 104.164 55.5957C104.199 55.5305 104.242 55.4504 104.294 55.3554C104.346 55.2604 104.385 55.1907 104.412 55.1462V56.1689C104.396 56.1905 104.359 56.2467 104.302 56.3375C104.246 56.423 104.187 56.5246 104.124 56.6425C103.974 56.9235 103.841 57.2411 103.724 57.5953C103.608 57.9442 103.516 58.2991 103.448 58.66C103.381 59.0155 103.348 59.341 103.348 59.6365V63.7785L102.875 64.6665Z" />
    <path
      d="M105.369 62.431C105.289 62.5815 105.218 62.7015 105.155 62.791C105.092 62.8833 105.049 62.9393 105.025 62.9589L105.145 61.8467C105.26 61.6935 105.361 61.5256 105.449 61.343C105.537 61.1604 105.615 60.9299 105.683 60.6514C105.753 60.3732 105.816 60.014 105.873 59.5738L105.961 58.8968L104.825 54.4544L105.337 53.4912L106.185 57.1118L106.217 57.0516L107.066 50.2404L107.578 49.2771L106.273 59.2303C106.215 59.6788 106.142 60.0953 106.055 60.4799C105.969 60.8674 105.868 61.223 105.753 61.5467C105.64 61.8678 105.512 62.1626 105.369 62.431Z" />
    <path
      d="M118.778 4.00003H174.778L131 76.8593H75L118.778 4.00003Z" />
    <path
      d="M189.778 4.00003H204.494L160.715 76.8593H146L189.778 4.00003Z" />
    <path
      d="M189.778 4.00003H204.494L160.715 76.8593H146L189.778 4.00003Z" />
    <path d="M75 77H161V92H75V77Z" />
    <path d="M162 77.2283L206 4V19L162 92.2283V77.2283Z" />
    <path d="M128.954 32H184.954L158 76.8592H102L128.954 32Z" />
    <path
      d="M164.904 76.5731V85.3004L164.432 86.1884V77.4611L164.904 76.5731Z" />
    <path
      d="M165.769 83.674V77.1286L166.241 76.2406V82.7861L165.769 83.674ZM166.009 75.5862C165.917 75.7592 165.838 75.8417 165.771 75.8336C165.706 75.823 165.673 75.7239 165.673 75.5364C165.673 75.3489 165.706 75.127 165.771 74.8705C165.838 74.6116 165.917 74.3956 166.009 74.2225C166.101 74.0494 166.18 73.9682 166.245 73.9788C166.312 73.9869 166.345 74.0847 166.345 74.2722C166.345 74.4597 166.312 74.6829 166.245 74.9419C166.18 75.1983 166.101 75.4131 166.009 75.5862Z" />
    <path
      d="M167.17 81.0393V72.312L167.642 71.424V74.6456L167.682 74.5704C167.717 74.3915 167.765 74.1564 167.826 73.8648C167.889 73.568 167.978 73.2408 168.094 72.8834C168.212 72.5206 168.37 72.1511 168.57 71.7748C168.829 71.2882 169.057 70.997 169.255 70.9014C169.452 70.8057 169.606 70.9066 169.717 71.2041C169.827 71.5016 169.883 71.9941 169.883 72.6816C169.883 73.3748 169.827 74.0797 169.717 74.7964C169.606 75.5103 169.453 76.1908 169.257 76.838C169.06 77.4823 168.834 78.0452 168.578 78.5268C168.381 78.898 168.223 79.1257 168.104 79.2097C167.986 79.2909 167.894 79.3022 167.83 79.2437C167.766 79.1823 167.717 79.1245 167.682 79.0704L167.626 79.1757V80.1814L167.17 81.0393ZM167.634 76.8936C167.634 77.388 167.668 77.7601 167.736 78.01C167.804 78.2571 167.903 78.3642 168.034 78.3315C168.165 78.2959 168.325 78.1 168.514 77.7438C168.712 77.3726 168.876 76.952 169.008 76.4821C169.142 76.0068 169.242 75.5175 169.309 75.0143C169.377 74.5057 169.411 74.0184 169.411 73.5525C169.411 73.0923 169.377 72.7402 169.311 72.4963C169.245 72.2471 169.146 72.1399 169.012 72.1748C168.88 72.2044 168.714 72.4073 168.514 72.7836C168.322 73.1448 168.161 73.552 168.03 74.0052C167.899 74.4556 167.801 74.9281 167.734 75.4229C167.667 75.9147 167.634 76.405 167.634 76.8936Z" />
    <path
      d="M170.605 74.579V68.0335L171.061 67.1757V68.1643L171.093 68.1041C171.149 67.6749 171.25 67.2215 171.397 66.7438C171.544 66.2662 171.709 65.8543 171.893 65.5082C171.928 65.4429 171.971 65.3628 172.023 65.2678C172.075 65.1729 172.115 65.1031 172.141 65.0586V66.0814C172.125 66.1029 172.089 66.1591 172.031 66.25C171.975 66.3354 171.916 66.4371 171.853 66.555C171.704 66.8359 171.571 67.1535 171.453 67.5078C171.337 67.8567 171.245 68.2116 171.177 68.5725C171.11 68.928 171.077 69.2535 171.077 69.549V73.691L170.605 74.579Z" />
    <path
      d="M173.605 69.0895C173.411 69.4557 173.234 69.7099 173.075 69.8522C172.916 69.9916 172.79 69.9999 172.697 69.8772C172.604 69.7517 172.557 69.4758 172.557 69.0497C172.557 68.6747 172.592 68.3055 172.661 67.9421C172.73 67.5759 172.823 67.2169 172.939 66.8651C173.055 66.5134 173.183 66.1732 173.323 65.8444C173.465 65.5104 173.607 65.1892 173.749 64.8811C173.936 64.4788 174.087 64.1557 174.204 63.9119C174.321 63.6628 174.406 63.4554 174.46 63.2897C174.514 63.1215 174.542 62.9564 174.542 62.7945V62.7604C174.542 62.34 174.488 62.1148 174.38 62.0851C174.273 62.0528 174.111 62.2411 173.893 62.6499C173.668 63.0739 173.491 63.5113 173.363 63.9624C173.235 64.4134 173.145 64.8071 173.093 65.1436L172.645 65.6455C172.725 65.0973 172.832 64.5869 172.965 64.1145C173.1 63.6367 173.247 63.2046 173.405 62.818C173.565 62.4261 173.723 62.0847 173.877 61.7937C173.976 61.6081 174.089 61.4204 174.217 61.2308C174.347 61.0357 174.472 60.9021 174.592 60.8297C174.713 60.7549 174.814 60.797 174.894 60.9562C174.974 61.1153 175.014 61.4548 175.014 61.9747V66.2872L174.542 67.1752V66.2888L174.518 66.334C174.486 66.5362 174.432 66.7885 174.358 67.091C174.283 67.3934 174.184 67.718 174.059 68.0649C173.935 68.4118 173.784 68.7534 173.605 69.0895ZM173.677 68.0506C173.864 67.6994 174.021 67.3253 174.149 66.9283C174.279 66.5287 174.376 66.1439 174.442 65.7738C174.508 65.4013 174.542 65.0786 174.542 64.8059V63.8854C174.522 63.9742 174.478 64.1038 174.41 64.2744C174.343 64.4396 174.266 64.6206 174.177 64.8174C174.091 65.0088 174.006 65.1937 173.923 65.3719C173.842 65.5448 173.776 65.686 173.725 65.7955C173.603 66.0604 173.488 66.3315 173.381 66.6089C173.276 66.8809 173.191 67.1537 173.125 67.4272C173.061 67.6953 173.029 67.9572 173.029 68.2129C173.029 68.5623 173.09 68.7124 173.211 68.6631C173.334 68.6085 173.489 68.4043 173.677 68.0506Z" />
    <path
      d="M175.875 64.6665V58.1211L176.332 57.2632V58.2518L176.364 58.1916C176.42 57.7624 176.521 57.309 176.668 56.8314C176.814 56.3537 176.98 55.9418 177.164 55.5957C177.199 55.5305 177.242 55.4504 177.294 55.3554C177.346 55.2604 177.385 55.1907 177.412 55.1462V56.1689C177.396 56.1905 177.359 56.2467 177.302 56.3375C177.246 56.423 177.187 56.5246 177.124 56.6425C176.974 56.9235 176.841 57.2411 176.724 57.5953C176.608 57.9442 176.516 58.2991 176.448 58.66C176.381 59.0155 176.348 59.341 176.348 59.6365V63.7785L175.875 64.6665Z" />
    <path
      d="M178.369 62.431C178.289 62.5815 178.218 62.7015 178.155 62.791C178.092 62.8833 178.049 62.9393 178.025 62.9589L178.145 61.8467C178.26 61.6935 178.361 61.5256 178.449 61.343C178.537 61.1604 178.615 60.9299 178.683 60.6514C178.753 60.3732 178.816 60.014 178.873 59.5738L178.961 58.8968L177.825 54.4544L178.337 53.4912L179.185 57.1118L179.217 57.0516L180.066 50.2404L180.578 49.2771L179.273 59.2303C179.215 59.6788 179.142 60.0953 179.055 60.4799C178.969 60.8674 178.868 61.223 178.753 61.5467C178.64 61.8678 178.512 62.1626 178.369 62.431Z" />
  </mask>
  <path
    d="M45.7783 4.00003H101.778L58 76.8593H2.00002L45.7783 4.00003Z"
    fill="black" />
  <path
    d="M116.778 4.00003H131.494L87.7154 76.8593H73L116.778 4.00003Z"
    fill="black" />
  <path
    d="M116.778 4.00003H131.494L87.7154 76.8593H73L116.778 4.00003Z"
    fill="black" />
  <path d="M2 77H88V92H2V77Z" fill="black" />
  <path d="M89 77.2283L133 4V19L89 92.2283V77.2283Z" fill="black" />
  <path
    d="M55.9542 32H111.954L85 76.8592H29L55.9542 32Z"
    fill="black" />
  <path
    d="M91.9043 76.5731V85.3004L91.4321 86.1884V77.4611L91.9043 76.5731Z"
    fill="black" />
  <path
    d="M92.769 83.674V77.1286L93.2412 76.2406V82.7861L92.769 83.674ZM93.0091 75.5862C92.9171 75.7592 92.8377 75.8417 92.771 75.8336C92.7057 75.823 92.673 75.7239 92.673 75.5364C92.673 75.3489 92.7057 75.127 92.771 74.8705C92.8377 74.6116 92.9171 74.3956 93.0091 74.2225C93.1011 74.0494 93.1798 73.9682 93.2452 73.9788C93.3118 73.9869 93.3452 74.0847 93.3452 74.2722C93.3452 74.4597 93.3118 74.6829 93.2452 74.9419C93.1798 75.1983 93.1011 75.4131 93.0091 75.5862Z"
    fill="black" />
  <path
    d="M94.1699 81.0393V72.312L94.6421 71.424V74.6456L94.6821 74.5704C94.7168 74.3915 94.7648 74.1564 94.8261 73.8648C94.8888 73.568 94.9782 73.2408 95.0942 72.8834C95.2116 72.5206 95.3703 72.1511 95.5703 71.7748C95.8291 71.2882 96.0572 70.997 96.2545 70.9014C96.4519 70.8057 96.606 70.9066 96.7167 71.2041C96.8274 71.5016 96.8827 71.9941 96.8827 72.6816C96.8827 73.3748 96.8274 74.0797 96.7167 74.7964C96.606 75.5103 96.4526 76.1908 96.2565 76.838C96.0605 77.4823 95.8344 78.0452 95.5783 78.5268C95.381 78.898 95.2229 79.1257 95.1042 79.2097C94.9855 79.2909 94.8942 79.3022 94.8301 79.2437C94.7661 79.1823 94.7168 79.1245 94.6821 79.0704L94.6261 79.1757V80.1814L94.1699 81.0393ZM94.6341 76.8936C94.6341 77.388 94.6681 77.7601 94.7361 78.01C94.8041 78.2571 94.9035 78.3642 95.0342 78.3315C95.1649 78.2959 95.3249 78.1 95.5143 77.7438C95.7117 77.3726 95.8764 76.952 96.0085 76.4821C96.1418 76.0068 96.2419 75.5175 96.3086 75.0143C96.3766 74.5057 96.4106 74.0184 96.4106 73.5525C96.4106 73.0923 96.3772 72.7402 96.3106 72.4963C96.2452 72.2471 96.1458 72.1399 96.0125 72.1748C95.8804 72.2044 95.7144 72.4073 95.5143 72.7836C95.3223 73.1448 95.1609 73.552 95.0302 74.0052C94.8995 74.4556 94.8008 74.9281 94.7341 75.4229C94.6674 75.9147 94.6341 76.405 94.6341 76.8936Z"
    fill="black" />
  <path
    d="M97.6049 74.579V68.0335L98.0611 67.1757V68.1643L98.0931 68.1041C98.1491 67.6749 98.2505 67.2215 98.3972 66.7438C98.5439 66.2662 98.7093 65.8543 98.8933 65.5082C98.928 65.4429 98.9713 65.3628 99.0234 65.2678C99.0754 65.1729 99.1147 65.1031 99.1414 65.0586V66.0814C99.1254 66.1029 99.0887 66.1591 99.0314 66.25C98.9753 66.3354 98.916 66.4371 98.8533 66.555C98.7039 66.8359 98.5706 67.1535 98.4532 67.5078C98.3372 67.8567 98.2451 68.2116 98.1771 68.5725C98.1104 68.928 98.0771 69.2535 98.0771 69.549V73.691L97.6049 74.579Z"
    fill="black" />
  <path
    d="M100.605 69.0895C100.411 69.4557 100.234 69.7099 100.075 69.8522C99.9165 69.9916 99.7904 69.9999 99.6971 69.8772C99.6037 69.7517 99.557 69.4758 99.557 69.0497C99.557 68.6747 99.5917 68.3055 99.661 67.9421C99.7304 67.5759 99.8231 67.2169 99.9391 66.8651C100.055 66.5134 100.183 66.1732 100.323 65.8444C100.465 65.5104 100.607 65.1892 100.749 64.8811C100.936 64.4788 101.087 64.1557 101.204 63.9119C101.321 63.6628 101.406 63.4554 101.46 63.2897C101.514 63.1215 101.542 62.9564 101.542 62.7945V62.7604C101.542 62.34 101.488 62.1148 101.38 62.0851C101.273 62.0528 101.111 62.2411 100.893 62.6499C100.668 63.0739 100.491 63.5113 100.363 63.9624C100.235 64.4134 100.145 64.8071 100.093 65.1436L99.645 65.6455C99.7251 65.0973 99.8318 64.5869 99.9651 64.1145C100.1 63.6367 100.247 63.2046 100.405 62.818C100.565 62.4261 100.723 62.0847 100.877 61.7937C100.976 61.6081 101.089 61.4204 101.218 61.2308C101.347 61.0357 101.472 60.9021 101.592 60.8297C101.713 60.7549 101.814 60.797 101.894 60.9562C101.974 61.1153 102.014 61.4548 102.014 61.9747V66.2872L101.542 67.1752V66.2888L101.518 66.334C101.486 66.5362 101.432 66.7885 101.358 67.091C101.283 67.3934 101.184 67.718 101.059 68.0649C100.935 68.4118 100.784 68.7534 100.605 69.0895ZM100.677 68.0506C100.864 67.6994 101.021 67.3253 101.149 66.9283C101.279 66.5287 101.376 66.1439 101.442 65.7738C101.508 65.4013 101.542 65.0786 101.542 64.8059V63.8854C101.522 63.9742 101.478 64.1038 101.41 64.2744C101.343 64.4396 101.266 64.6206 101.177 64.8174C101.091 65.0088 101.006 65.1937 100.923 65.3719C100.842 65.5448 100.776 65.686 100.725 65.7955C100.603 66.0604 100.488 66.3315 100.381 66.6089C100.276 66.8809 100.191 67.1537 100.125 67.4272C100.061 67.6953 100.029 67.9572 100.029 68.2129C100.029 68.5623 100.09 68.7124 100.211 68.6631C100.334 68.6085 100.489 68.4043 100.677 68.0506Z"
    fill="black" />
  <path
    d="M102.875 64.6665V58.1211L103.332 57.2632V58.2518L103.364 58.1916C103.42 57.7624 103.521 57.309 103.668 56.8314C103.814 56.3537 103.98 55.9418 104.164 55.5957C104.199 55.5305 104.242 55.4504 104.294 55.3554C104.346 55.2604 104.385 55.1907 104.412 55.1462V56.1689C104.396 56.1905 104.359 56.2467 104.302 56.3375C104.246 56.423 104.187 56.5246 104.124 56.6425C103.974 56.9235 103.841 57.2411 103.724 57.5953C103.608 57.9442 103.516 58.2991 103.448 58.66C103.381 59.0155 103.348 59.341 103.348 59.6365V63.7785L102.875 64.6665Z"
    fill="black" />
  <path
    d="M105.369 62.431C105.289 62.5815 105.218 62.7015 105.155 62.791C105.092 62.8833 105.049 62.9393 105.025 62.9589L105.145 61.8467C105.26 61.6935 105.361 61.5256 105.449 61.343C105.537 61.1604 105.615 60.9299 105.683 60.6514C105.753 60.3732 105.816 60.014 105.873 59.5738L105.961 58.8968L104.825 54.4544L105.337 53.4912L106.185 57.1118L106.217 57.0516L107.066 50.2404L107.578 49.2771L106.273 59.2303C106.215 59.6788 106.142 60.0953 106.055 60.4799C105.969 60.8674 105.868 61.223 105.753 61.5467C105.64 61.8678 105.512 62.1626 105.369 62.431Z"
    fill="black" />
  <path
    d="M118.778 4.00003H174.778L131 76.8593H75L118.778 4.00003Z"
    fill="black" />
  <path
    d="M189.778 4.00003H204.494L160.715 76.8593H146L189.778 4.00003Z"
    fill="black" />
  <path
    d="M189.778 4.00003H204.494L160.715 76.8593H146L189.778 4.00003Z"
    fill="black" />
  <path d="M75 77H161V92H75V77Z" fill="black" />
  <path d="M162 77.2283L206 4V19L162 92.2283V77.2283Z" fill="black" />
  <path
    d="M128.954 32H184.954L158 76.8592H102L128.954 32Z"
    fill="black" />
  <path
    d="M164.904 76.5731V85.3004L164.432 86.1884V77.4611L164.904 76.5731Z"
    fill="white" />
  <path
    d="M165.769 83.674V77.1286L166.241 76.2406V82.7861L165.769 83.674ZM166.009 75.5862C165.917 75.7592 165.838 75.8417 165.771 75.8336C165.706 75.823 165.673 75.7239 165.673 75.5364C165.673 75.3489 165.706 75.127 165.771 74.8705C165.838 74.6116 165.917 74.3956 166.009 74.2225C166.101 74.0494 166.18 73.9682 166.245 73.9788C166.312 73.9869 166.345 74.0847 166.345 74.2722C166.345 74.4597 166.312 74.6829 166.245 74.9419C166.18 75.1983 166.101 75.4131 166.009 75.5862Z"
    fill="white" />
  <path
    d="M167.17 81.0393V72.312L167.642 71.424V74.6456L167.682 74.5704C167.717 74.3915 167.765 74.1564 167.826 73.8648C167.889 73.568 167.978 73.2408 168.094 72.8834C168.212 72.5206 168.37 72.1511 168.57 71.7748C168.829 71.2882 169.057 70.997 169.255 70.9014C169.452 70.8057 169.606 70.9066 169.717 71.2041C169.827 71.5016 169.883 71.9941 169.883 72.6816C169.883 73.3748 169.827 74.0797 169.717 74.7964C169.606 75.5103 169.453 76.1908 169.257 76.838C169.06 77.4823 168.834 78.0452 168.578 78.5268C168.381 78.898 168.223 79.1257 168.104 79.2097C167.986 79.2909 167.894 79.3022 167.83 79.2437C167.766 79.1823 167.717 79.1245 167.682 79.0704L167.626 79.1757V80.1814L167.17 81.0393ZM167.634 76.8936C167.634 77.388 167.668 77.7601 167.736 78.01C167.804 78.2571 167.903 78.3642 168.034 78.3315C168.165 78.2959 168.325 78.1 168.514 77.7438C168.712 77.3726 168.876 76.952 169.008 76.4821C169.142 76.0068 169.242 75.5175 169.309 75.0143C169.377 74.5057 169.411 74.0184 169.411 73.5525C169.411 73.0923 169.377 72.7402 169.311 72.4963C169.245 72.2471 169.146 72.1399 169.012 72.1748C168.88 72.2044 168.714 72.4073 168.514 72.7836C168.322 73.1448 168.161 73.552 168.03 74.0052C167.899 74.4556 167.801 74.9281 167.734 75.4229C167.667 75.9147 167.634 76.405 167.634 76.8936Z"
    fill="white" />
  <path
    d="M170.605 74.579V68.0335L171.061 67.1757V68.1643L171.093 68.1041C171.149 67.6749 171.25 67.2215 171.397 66.7438C171.544 66.2662 171.709 65.8543 171.893 65.5082C171.928 65.4429 171.971 65.3628 172.023 65.2678C172.075 65.1729 172.115 65.1031 172.141 65.0586V66.0814C172.125 66.1029 172.089 66.1591 172.031 66.25C171.975 66.3354 171.916 66.4371 171.853 66.555C171.704 66.8359 171.571 67.1535 171.453 67.5078C171.337 67.8567 171.245 68.2116 171.177 68.5725C171.11 68.928 171.077 69.2535 171.077 69.549V73.691L170.605 74.579Z"
    fill="white" />
  <path
    d="M173.605 69.0895C173.411 69.4557 173.234 69.7099 173.075 69.8522C172.916 69.9916 172.79 69.9999 172.697 69.8772C172.604 69.7517 172.557 69.4758 172.557 69.0497C172.557 68.6747 172.592 68.3055 172.661 67.9421C172.73 67.5759 172.823 67.2169 172.939 66.8651C173.055 66.5134 173.183 66.1732 173.323 65.8444C173.465 65.5104 173.607 65.1892 173.749 64.8811C173.936 64.4788 174.087 64.1557 174.204 63.9119C174.321 63.6628 174.406 63.4554 174.46 63.2897C174.514 63.1215 174.542 62.9564 174.542 62.7945V62.7604C174.542 62.34 174.488 62.1148 174.38 62.0851C174.273 62.0528 174.111 62.2411 173.893 62.6499C173.668 63.0739 173.491 63.5113 173.363 63.9624C173.235 64.4134 173.145 64.8071 173.093 65.1436L172.645 65.6455C172.725 65.0973 172.832 64.5869 172.965 64.1145C173.1 63.6367 173.247 63.2046 173.405 62.818C173.565 62.4261 173.723 62.0847 173.877 61.7937C173.976 61.6081 174.089 61.4204 174.217 61.2308C174.347 61.0357 174.472 60.9021 174.592 60.8297C174.713 60.7549 174.814 60.797 174.894 60.9562C174.974 61.1153 175.014 61.4548 175.014 61.9747V66.2872L174.542 67.1752V66.2888L174.518 66.334C174.486 66.5362 174.432 66.7885 174.358 67.091C174.283 67.3934 174.184 67.718 174.059 68.0649C173.935 68.4118 173.784 68.7534 173.605 69.0895ZM173.677 68.0506C173.864 67.6994 174.021 67.3253 174.149 66.9283C174.279 66.5287 174.376 66.1439 174.442 65.7738C174.508 65.4013 174.542 65.0786 174.542 64.8059V63.8854C174.522 63.9742 174.478 64.1038 174.41 64.2744C174.343 64.4396 174.266 64.6206 174.177 64.8174C174.091 65.0088 174.006 65.1937 173.923 65.3719C173.842 65.5448 173.776 65.686 173.725 65.7955C173.603 66.0604 173.488 66.3315 173.381 66.6089C173.276 66.8809 173.191 67.1537 173.125 67.4272C173.061 67.6953 173.029 67.9572 173.029 68.2129C173.029 68.5623 173.09 68.7124 173.211 68.6631C173.334 68.6085 173.489 68.4043 173.677 68.0506Z"
    fill="white" />
  <path
    d="M175.875 64.6665V58.1211L176.332 57.2632V58.2518L176.364 58.1916C176.42 57.7624 176.521 57.309 176.668 56.8314C176.814 56.3537 176.98 55.9418 177.164 55.5957C177.199 55.5305 177.242 55.4504 177.294 55.3554C177.346 55.2604 177.385 55.1907 177.412 55.1462V56.1689C177.396 56.1905 177.359 56.2467 177.302 56.3375C177.246 56.423 177.187 56.5246 177.124 56.6425C176.974 56.9235 176.841 57.2411 176.724 57.5953C176.608 57.9442 176.516 58.2991 176.448 58.66C176.381 59.0155 176.348 59.341 176.348 59.6365V63.7785L175.875 64.6665Z"
    fill="white" />
  <path
    d="M178.369 62.431C178.289 62.5815 178.218 62.7015 178.155 62.791C178.092 62.8833 178.049 62.9393 178.025 62.9589L178.145 61.8467C178.26 61.6935 178.361 61.5256 178.449 61.343C178.537 61.1604 178.615 60.9299 178.683 60.6514C178.753 60.3732 178.816 60.014 178.873 59.5738L178.961 58.8968L177.825 54.4544L178.337 53.4912L179.185 57.1118L179.217 57.0516L180.066 50.2404L180.578 49.2771L179.273 59.2303C179.215 59.6788 179.142 60.0953 179.055 60.4799C178.969 60.8674 178.868 61.223 178.753 61.5467C178.64 61.8678 178.512 62.1626 178.369 62.431Z"
    fill="white" />
  <path
    d="M45.7783 4.00003H101.778L58 76.8593H2.00002L45.7783 4.00003Z"
    stroke="#FF0000"
    strokeWidth="2"
    mask="url(#path-1-outside-1_15_41)" />
  <path
    d="M116.778 4.00003H131.494L87.7154 76.8593H73L116.778 4.00003Z"
    stroke="#FF0000"
    strokeWidth="2"
    mask="url(#path-1-outside-1_15_41)" />
  <path
    d="M116.778 4.00003H131.494L87.7154 76.8593H73L116.778 4.00003Z"
    stroke="#FF0000"
    strokeWidth="2"
    mask="url(#path-1-outside-1_15_41)" />
  <path
    d="M2 77H88V92H2V77Z"
    stroke="#FF0000"
    strokeWidth="2"
    mask="url(#path-1-outside-1_15_41)" />
  <path
    d="M89 77.2283L133 4V19L89 92.2283V77.2283Z"
    stroke="#FF0000"
    strokeWidth="2"
    mask="url(#path-1-outside-1_15_41)" />
  <path
    d="M55.9542 32H111.954L85 76.8592H29L55.9542 32Z"
    stroke="#FF0000"
    strokeWidth="2"
    mask="url(#path-1-outside-1_15_41)" />
  <path
    d="M91.9043 76.5731V85.3004L91.4321 86.1884V77.4611L91.9043 76.5731Z"
    stroke="#FF0000"
    strokeWidth="2"
    mask="url(#path-1-outside-1_15_41)" />
  <path
    d="M92.769 83.674V77.1286L93.2412 76.2406V82.7861L92.769 83.674ZM93.0091 75.5862C92.9171 75.7592 92.8377 75.8417 92.771 75.8336C92.7057 75.823 92.673 75.7239 92.673 75.5364C92.673 75.3489 92.7057 75.127 92.771 74.8705C92.8377 74.6116 92.9171 74.3956 93.0091 74.2225C93.1011 74.0494 93.1798 73.9682 93.2452 73.9788C93.3118 73.9869 93.3452 74.0847 93.3452 74.2722C93.3452 74.4597 93.3118 74.6829 93.2452 74.9419C93.1798 75.1983 93.1011 75.4131 93.0091 75.5862Z"
    stroke="#FF0000"
    strokeWidth="2"
    mask="url(#path-1-outside-1_15_41)" />
  <path
    d="M94.1699 81.0393V72.312L94.6421 71.424V74.6456L94.6821 74.5704C94.7168 74.3915 94.7648 74.1564 94.8261 73.8648C94.8888 73.568 94.9782 73.2408 95.0942 72.8834C95.2116 72.5206 95.3703 72.1511 95.5703 71.7748C95.8291 71.2882 96.0572 70.997 96.2545 70.9014C96.4519 70.8057 96.606 70.9066 96.7167 71.2041C96.8274 71.5016 96.8827 71.9941 96.8827 72.6816C96.8827 73.3748 96.8274 74.0797 96.7167 74.7964C96.606 75.5103 96.4526 76.1908 96.2565 76.838C96.0605 77.4823 95.8344 78.0452 95.5783 78.5268C95.381 78.898 95.2229 79.1257 95.1042 79.2097C94.9855 79.2909 94.8942 79.3022 94.8301 79.2437C94.7661 79.1823 94.7168 79.1245 94.6821 79.0704L94.6261 79.1757V80.1814L94.1699 81.0393ZM94.6341 76.8936C94.6341 77.388 94.6681 77.7601 94.7361 78.01C94.8041 78.2571 94.9035 78.3642 95.0342 78.3315C95.1649 78.2959 95.3249 78.1 95.5143 77.7438C95.7117 77.3726 95.8764 76.952 96.0085 76.4821C96.1418 76.0068 96.2419 75.5175 96.3086 75.0143C96.3766 74.5057 96.4106 74.0184 96.4106 73.5525C96.4106 73.0923 96.3772 72.7402 96.3106 72.4963C96.2452 72.2471 96.1458 72.1399 96.0125 72.1748C95.8804 72.2044 95.7144 72.4073 95.5143 72.7836C95.3223 73.1448 95.1609 73.552 95.0302 74.0052C94.8995 74.4556 94.8008 74.9281 94.7341 75.4229C94.6674 75.9147 94.6341 76.405 94.6341 76.8936Z"
    stroke="#FF0000"
    strokeWidth="2"
    mask="url(#path-1-outside-1_15_41)" />
  <path
    d="M97.6049 74.579V68.0335L98.0611 67.1757V68.1643L98.0931 68.1041C98.1491 67.6749 98.2505 67.2215 98.3972 66.7438C98.5439 66.2662 98.7093 65.8543 98.8933 65.5082C98.928 65.4429 98.9713 65.3628 99.0234 65.2678C99.0754 65.1729 99.1147 65.1031 99.1414 65.0586V66.0814C99.1254 66.1029 99.0887 66.1591 99.0314 66.25C98.9753 66.3354 98.916 66.4371 98.8533 66.555C98.7039 66.8359 98.5706 67.1535 98.4532 67.5078C98.3372 67.8567 98.2451 68.2116 98.1771 68.5725C98.1104 68.928 98.0771 69.2535 98.0771 69.549V73.691L97.6049 74.579Z"
    stroke="#FF0000"
    strokeWidth="2"
    mask="url(#path-1-outside-1_15_41)" />
  <path
    d="M100.605 69.0895C100.411 69.4557 100.234 69.7099 100.075 69.8522C99.9165 69.9916 99.7904 69.9999 99.6971 69.8772C99.6037 69.7517 99.557 69.4758 99.557 69.0497C99.557 68.6747 99.5917 68.3055 99.661 67.9421C99.7304 67.5759 99.8231 67.2169 99.9391 66.8651C100.055 66.5134 100.183 66.1732 100.323 65.8444C100.465 65.5104 100.607 65.1892 100.749 64.8811C100.936 64.4788 101.087 64.1557 101.204 63.9119C101.321 63.6628 101.406 63.4554 101.46 63.2897C101.514 63.1215 101.542 62.9564 101.542 62.7945V62.7604C101.542 62.34 101.488 62.1148 101.38 62.0851C101.273 62.0528 101.111 62.2411 100.893 62.6499C100.668 63.0739 100.491 63.5113 100.363 63.9624C100.235 64.4134 100.145 64.8071 100.093 65.1436L99.645 65.6455C99.7251 65.0973 99.8318 64.5869 99.9651 64.1145C100.1 63.6367 100.247 63.2046 100.405 62.818C100.565 62.4261 100.723 62.0847 100.877 61.7937C100.976 61.6081 101.089 61.4204 101.218 61.2308C101.347 61.0357 101.472 60.9021 101.592 60.8297C101.713 60.7549 101.814 60.797 101.894 60.9562C101.974 61.1153 102.014 61.4548 102.014 61.9747V66.2872L101.542 67.1752V66.2888L101.518 66.334C101.486 66.5362 101.432 66.7885 101.358 67.091C101.283 67.3934 101.184 67.718 101.059 68.0649C100.935 68.4118 100.784 68.7534 100.605 69.0895ZM100.677 68.0506C100.864 67.6994 101.021 67.3253 101.149 66.9283C101.279 66.5287 101.376 66.1439 101.442 65.7738C101.508 65.4013 101.542 65.0786 101.542 64.8059V63.8854C101.522 63.9742 101.478 64.1038 101.41 64.2744C101.343 64.4396 101.266 64.6206 101.177 64.8174C101.091 65.0088 101.006 65.1937 100.923 65.3719C100.842 65.5448 100.776 65.686 100.725 65.7955C100.603 66.0604 100.488 66.3315 100.381 66.6089C100.276 66.8809 100.191 67.1537 100.125 67.4272C100.061 67.6953 100.029 67.9572 100.029 68.2129C100.029 68.5623 100.09 68.7124 100.211 68.6631C100.334 68.6085 100.489 68.4043 100.677 68.0506Z"
    stroke="#FF0000"
    strokeWidth="2"
    mask="url(#path-1-outside-1_15_41)" />
  <path
    d="M102.875 64.6665V58.1211L103.332 57.2632V58.2518L103.364 58.1916C103.42 57.7624 103.521 57.309 103.668 56.8314C103.814 56.3537 103.98 55.9418 104.164 55.5957C104.199 55.5305 104.242 55.4504 104.294 55.3554C104.346 55.2604 104.385 55.1907 104.412 55.1462V56.1689C104.396 56.1905 104.359 56.2467 104.302 56.3375C104.246 56.423 104.187 56.5246 104.124 56.6425C103.974 56.9235 103.841 57.2411 103.724 57.5953C103.608 57.9442 103.516 58.2991 103.448 58.66C103.381 59.0155 103.348 59.341 103.348 59.6365V63.7785L102.875 64.6665Z"
    stroke="#FF0000"
    strokeWidth="2"
    mask="url(#path-1-outside-1_15_41)" />
  <path
    d="M105.369 62.431C105.289 62.5815 105.218 62.7015 105.155 62.791C105.092 62.8833 105.049 62.9393 105.025 62.9589L105.145 61.8467C105.26 61.6935 105.361 61.5256 105.449 61.343C105.537 61.1604 105.615 60.9299 105.683 60.6514C105.753 60.3732 105.816 60.014 105.873 59.5738L105.961 58.8968L104.825 54.4544L105.337 53.4912L106.185 57.1118L106.217 57.0516L107.066 50.2404L107.578 49.2771L106.273 59.2303C106.215 59.6788 106.142 60.0953 106.055 60.4799C105.969 60.8674 105.868 61.223 105.753 61.5467C105.64 61.8678 105.512 62.1626 105.369 62.431Z"
    stroke="#FF0000"
    strokeWidth="2"
    mask="url(#path-1-outside-1_15_41)" />
  <path
    d="M118.778 4.00003H174.778L131 76.8593H75L118.778 4.00003Z"
    stroke="#FF0000"
    strokeWidth="2"
    mask="url(#path-1-outside-1_15_41)" />
  <path
    d="M189.778 4.00003H204.494L160.715 76.8593H146L189.778 4.00003Z"
    stroke="#FF0000"
    strokeWidth="2"
    mask="url(#path-1-outside-1_15_41)" />
  <path
    d="M189.778 4.00003H204.494L160.715 76.8593H146L189.778 4.00003Z"
    stroke="#FF0000"
    strokeWidth="2"
    mask="url(#path-1-outside-1_15_41)" />
  <path
    d="M75 77H161V92H75V77Z"
    stroke="#FF0000"
    strokeWidth="2"
    mask="url(#path-1-outside-1_15_41)" />
  <path
    d="M162 77.2283L206 4V19L162 92.2283V77.2283Z"
    stroke="#FF0000"
    strokeWidth="2"
    mask="url(#path-1-outside-1_15_41)" />
  <path
    d="M128.954 32H184.954L158 76.8592H102L128.954 32Z"
    stroke="#FF0000"
    strokeWidth="2"
    mask="url(#path-1-outside-1_15_41)" />
  <path
    d="M164.904 76.5731V85.3004L164.432 86.1884V77.4611L164.904 76.5731Z"
    stroke="#FF0000"
    strokeWidth="2"
    mask="url(#path-1-outside-1_15_41)" />
  <path
    d="M165.769 83.674V77.1286L166.241 76.2406V82.7861L165.769 83.674ZM166.009 75.5862C165.917 75.7592 165.838 75.8417 165.771 75.8336C165.706 75.823 165.673 75.7239 165.673 75.5364C165.673 75.3489 165.706 75.127 165.771 74.8705C165.838 74.6116 165.917 74.3956 166.009 74.2225C166.101 74.0494 166.18 73.9682 166.245 73.9788C166.312 73.9869 166.345 74.0847 166.345 74.2722C166.345 74.4597 166.312 74.6829 166.245 74.9419C166.18 75.1983 166.101 75.4131 166.009 75.5862Z"
    stroke="#FF0000"
    strokeWidth="2"
    mask="url(#path-1-outside-1_15_41)" />
  <path
    d="M167.17 81.0393V72.312L167.642 71.424V74.6456L167.682 74.5704C167.717 74.3915 167.765 74.1564 167.826 73.8648C167.889 73.568 167.978 73.2408 168.094 72.8834C168.212 72.5206 168.37 72.1511 168.57 71.7748C168.829 71.2882 169.057 70.997 169.255 70.9014C169.452 70.8057 169.606 70.9066 169.717 71.2041C169.827 71.5016 169.883 71.9941 169.883 72.6816C169.883 73.3748 169.827 74.0797 169.717 74.7964C169.606 75.5103 169.453 76.1908 169.257 76.838C169.06 77.4823 168.834 78.0452 168.578 78.5268C168.381 78.898 168.223 79.1257 168.104 79.2097C167.986 79.2909 167.894 79.3022 167.83 79.2437C167.766 79.1823 167.717 79.1245 167.682 79.0704L167.626 79.1757V80.1814L167.17 81.0393ZM167.634 76.8936C167.634 77.388 167.668 77.7601 167.736 78.01C167.804 78.2571 167.903 78.3642 168.034 78.3315C168.165 78.2959 168.325 78.1 168.514 77.7438C168.712 77.3726 168.876 76.952 169.008 76.4821C169.142 76.0068 169.242 75.5175 169.309 75.0143C169.377 74.5057 169.411 74.0184 169.411 73.5525C169.411 73.0923 169.377 72.7402 169.311 72.4963C169.245 72.2471 169.146 72.1399 169.012 72.1748C168.88 72.2044 168.714 72.4073 168.514 72.7836C168.322 73.1448 168.161 73.552 168.03 74.0052C167.899 74.4556 167.801 74.9281 167.734 75.4229C167.667 75.9147 167.634 76.405 167.634 76.8936Z"
    stroke="#FF0000"
    strokeWidth="2"
    mask="url(#path-1-outside-1_15_41)" />
  <path
    d="M170.605 74.579V68.0335L171.061 67.1757V68.1643L171.093 68.1041C171.149 67.6749 171.25 67.2215 171.397 66.7438C171.544 66.2662 171.709 65.8543 171.893 65.5082C171.928 65.4429 171.971 65.3628 172.023 65.2678C172.075 65.1729 172.115 65.1031 172.141 65.0586V66.0814C172.125 66.1029 172.089 66.1591 172.031 66.25C171.975 66.3354 171.916 66.4371 171.853 66.555C171.704 66.8359 171.571 67.1535 171.453 67.5078C171.337 67.8567 171.245 68.2116 171.177 68.5725C171.11 68.928 171.077 69.2535 171.077 69.549V73.691L170.605 74.579Z"
    stroke="#FF0000"
    strokeWidth="2"
    mask="url(#path-1-outside-1_15_41)" />
  <path
    d="M173.605 69.0895C173.411 69.4557 173.234 69.7099 173.075 69.8522C172.916 69.9916 172.79 69.9999 172.697 69.8772C172.604 69.7517 172.557 69.4758 172.557 69.0497C172.557 68.6747 172.592 68.3055 172.661 67.9421C172.73 67.5759 172.823 67.2169 172.939 66.8651C173.055 66.5134 173.183 66.1732 173.323 65.8444C173.465 65.5104 173.607 65.1892 173.749 64.8811C173.936 64.4788 174.087 64.1557 174.204 63.9119C174.321 63.6628 174.406 63.4554 174.46 63.2897C174.514 63.1215 174.542 62.9564 174.542 62.7945V62.7604C174.542 62.34 174.488 62.1148 174.38 62.0851C174.273 62.0528 174.111 62.2411 173.893 62.6499C173.668 63.0739 173.491 63.5113 173.363 63.9624C173.235 64.4134 173.145 64.8071 173.093 65.1436L172.645 65.6455C172.725 65.0973 172.832 64.5869 172.965 64.1145C173.1 63.6367 173.247 63.2046 173.405 62.818C173.565 62.4261 173.723 62.0847 173.877 61.7937C173.976 61.6081 174.089 61.4204 174.217 61.2308C174.347 61.0357 174.472 60.9021 174.592 60.8297C174.713 60.7549 174.814 60.797 174.894 60.9562C174.974 61.1153 175.014 61.4548 175.014 61.9747V66.2872L174.542 67.1752V66.2888L174.518 66.334C174.486 66.5362 174.432 66.7885 174.358 67.091C174.283 67.3934 174.184 67.718 174.059 68.0649C173.935 68.4118 173.784 68.7534 173.605 69.0895ZM173.677 68.0506C173.864 67.6994 174.021 67.3253 174.149 66.9283C174.279 66.5287 174.376 66.1439 174.442 65.7738C174.508 65.4013 174.542 65.0786 174.542 64.8059V63.8854C174.522 63.9742 174.478 64.1038 174.41 64.2744C174.343 64.4396 174.266 64.6206 174.177 64.8174C174.091 65.0088 174.006 65.1937 173.923 65.3719C173.842 65.5448 173.776 65.686 173.725 65.7955C173.603 66.0604 173.488 66.3315 173.381 66.6089C173.276 66.8809 173.191 67.1537 173.125 67.4272C173.061 67.6953 173.029 67.9572 173.029 68.2129C173.029 68.5623 173.09 68.7124 173.211 68.6631C173.334 68.6085 173.489 68.4043 173.677 68.0506Z"
    stroke="#FF0000"
    strokeWidth="2"
    mask="url(#path-1-outside-1_15_41)" />
  <path
    d="M175.875 64.6665V58.1211L176.332 57.2632V58.2518L176.364 58.1916C176.42 57.7624 176.521 57.309 176.668 56.8314C176.814 56.3537 176.98 55.9418 177.164 55.5957C177.199 55.5305 177.242 55.4504 177.294 55.3554C177.346 55.2604 177.385 55.1907 177.412 55.1462V56.1689C177.396 56.1905 177.359 56.2467 177.302 56.3375C177.246 56.423 177.187 56.5246 177.124 56.6425C176.974 56.9235 176.841 57.2411 176.724 57.5953C176.608 57.9442 176.516 58.2991 176.448 58.66C176.381 59.0155 176.348 59.341 176.348 59.6365V63.7785L175.875 64.6665Z"
    stroke="#FF0000"
    strokeWidth="2"
    mask="url(#path-1-outside-1_15_41)" />
  <path
    d="M178.369 62.431C178.289 62.5815 178.218 62.7015 178.155 62.791C178.092 62.8833 178.049 62.9393 178.025 62.9589L178.145 61.8467C178.26 61.6935 178.361 61.5256 178.449 61.343C178.537 61.1604 178.615 60.9299 178.683 60.6514C178.753 60.3732 178.816 60.014 178.873 59.5738L178.961 58.8968L177.825 54.4544L178.337 53.4912L179.185 57.1118L179.217 57.0516L180.066 50.2404L180.578 49.2771L179.273 59.2303C179.215 59.6788 179.142 60.0953 179.055 60.4799C178.969 60.8674 178.868 61.223 178.753 61.5467C178.64 61.8678 178.512 62.1626 178.369 62.431Z"
    stroke="#FF0000"
    strokeWidth="2"
    mask="url(#path-1-outside-1_15_41)" />
</svg>